<svg width="37" height="25" viewBox="0 0 37 25" fill="none" xmlns="http://www.w3.org/2000/svg">
<path fill-rule="evenodd" clip-rule="evenodd" d="M2.57174 0.216722C1.68099 0.488411 0.388891 1.76242 0.156386 2.59851C0.0217955 3.08162 -0.0224909 6.20844 0.0103782 12.8765L0.0577785 22.4601L0.579358 23.2674C0.959082 23.8551 1.35282 24.2007 2.02646 24.5374L2.95164 25H18.4705H33.9892L34.9273 24.5447C35.5418 24.2465 36.0451 23.8417 36.3857 23.3717L36.9057 22.6538L36.9528 12.5929L37 2.53195L36.4338 1.72732C36.0416 1.16987 35.5828 0.781126 34.9398 0.461424L34.0119 0L18.5918 0.0168873C7.8564 0.0286423 2.98935 0.089404 2.57174 0.216722ZM26.2418 8.68228C22.3747 12.3588 19.0388 15.4548 18.8288 15.5624C18.4101 15.7768 19.3216 16.5906 7.92905 5.83162L3.86367 1.99238L18.5682 1.99503L33.2728 1.99768L26.2418 8.68228ZM34.8312 22.455C34.6877 22.6646 34.4054 22.9204 34.2041 23.0237C33.8686 23.1954 33.4154 22.8065 28.798 18.3851L23.7581 13.5591L29.3804 8.28377L35.0028 3.00844L35.0474 12.5411C35.0862 20.8081 35.0574 22.1245 34.8312 22.455ZM7.84982 8.31887L13.3415 13.4922L8.27937 18.2526C5.49519 20.871 3.12169 23.0132 3.00492 23.0132C2.88832 23.0132 2.64457 22.8565 2.46327 22.6649C2.14842 22.332 2.13147 21.8891 2.08511 12.7311C2.05553 6.9 2.09947 3.1457 2.19738 3.1457C2.28578 3.1457 4.8295 5.47368 7.84982 8.31887ZM16.4923 16.5563C17.5296 17.5526 18.3537 18.2119 18.562 18.2119C18.7696 18.2119 19.6034 17.549 20.6435 16.557L22.3786 14.902L26.7878 19.0321L31.1969 23.1622L18.4817 23.1637L5.76661 23.1651L10.1512 19.0329C12.5626 16.7601 14.5882 14.9007 14.6523 14.9007C14.7163 14.9007 15.5445 15.6457 16.4923 16.5563Z" fill="white"/>
</svg>
