<svg width="37" height="37" viewBox="0 0 37 37" fill="none" xmlns="http://www.w3.org/2000/svg">
<path fill-rule="evenodd" clip-rule="evenodd" d="M4.83122 0.389029C3.74098 0.736648 3.30985 1.02411 2.17564 2.15902C0.994215 3.34116 0.767049 3.69342 0.394626 4.92018C-0.0231897 6.29693 -0.0310578 6.59045 0.0242206 18.938L0.0805077 31.5495L0.650238 32.783C1.36321 34.3266 2.74154 35.6992 4.31717 36.4348L5.52765 37H18.5445H31.5613L32.8933 36.3439C34.4721 35.5661 35.7119 34.2992 36.4634 32.6951L37 31.5495V18.529V5.50843L36.4351 4.29721C35.6999 2.72062 34.3283 1.34145 32.7855 0.628042L31.5529 0.0579642L18.8429 0.0157736C6.51075 -0.025004 6.09415 -0.0139011 4.83122 0.389029ZM31.7669 3.22287C32.1065 3.40919 32.6762 3.86017 33.0329 4.22535C34.2599 5.48118 34.2764 5.67033 34.2764 18.5336C34.2764 31.5558 34.2805 31.5138 32.9284 32.8992C31.8821 33.9716 30.7479 34.2748 27.7838 34.2748H25.3996V28.5288V22.7828L27.3666 22.725L29.3337 22.6673L29.6369 20.4467L29.9399 18.2262L27.6699 18.1693L25.3996 18.1125V16.1451C25.3996 13.8737 25.607 13.41 26.7673 13.0874C27.1802 12.9727 28.0855 12.8785 28.7789 12.8779L30.0398 12.8766V10.8741V8.87136L28.7002 8.72784C25.8858 8.42624 23.4629 9.01913 22.2086 10.3161C21.0665 11.4973 20.7038 12.677 20.5985 15.5514L20.5043 18.1252H18.816H17.128V20.4467V22.7682H18.8429H20.5577V28.5215V34.2748H13.7351C6.1349 34.2748 5.42153 34.1813 4.24535 33.0304C2.82445 31.6406 2.90495 32.5116 2.90495 18.529V5.91217L3.45794 4.97085C4.0091 4.03277 4.93613 3.30281 5.9844 2.98123C6.28803 2.88797 12.0743 2.82801 18.8429 2.848C29.9391 2.8805 31.2101 2.91744 31.7669 3.22287Z" fill="white"/>
</svg>
