<svg width="31" height="30" viewBox="0 0 31 30" fill="none" xmlns="http://www.w3.org/2000/svg">
<path fill-rule="evenodd" clip-rule="evenodd" d="M24.1994 0.15617C21.4126 0.888611 18.1505 4.56752 17.7948 7.37861L17.7309 7.88431L18.389 7.54703C19.6391 6.90652 20.5809 6.98154 21.242 7.77422C21.8837 8.54377 21.9742 8.82984 21.9707 10.0787C21.968 11.0809 21.9335 11.2885 21.6619 11.94C21.3415 12.7083 20.0934 15.1806 19.6743 15.877C18.2513 18.2416 17.3543 19.1456 16.7776 18.7959C16.4738 18.6117 16.1064 17.8426 15.6746 16.4868C15.1846 14.9482 14.2956 11.1945 14.0741 9.72901C13.4129 5.35388 13.0212 3.68132 12.2935 2.12552C10.9831 -0.676217 8.71409 -0.393867 4.58911 3.08424C3.12044 4.32262 1.74903 5.7153 0.838113 6.89344C0.350225 7.52447 -0.0262596 8.10485 0.00143527 8.18313C0.105968 8.47834 1.05415 9.78767 1.1666 9.79207C1.23115 9.79466 1.34099 9.72213 1.41086 9.6311C1.77027 9.16183 3.83322 8.25589 4.27114 8.37502C4.67271 8.48421 5.06565 9.45523 5.87359 12.3348C6.04767 12.9552 6.59293 14.8842 7.08529 16.6214C7.57756 18.3586 8.10032 20.2114 8.24702 20.7388C9.64405 25.763 10.0334 26.699 11.3011 28.0808C12.6369 29.5369 13.5541 29.9029 15.0476 29.5761C15.8607 29.3981 16.4217 29.1363 17.031 28.6503C19.9886 26.2918 24.6051 21.0001 26.787 17.4674C28.6277 14.487 29.8068 11.5861 30.5264 8.26751C30.7815 7.09107 30.8189 6.69129 30.8212 5.11529C30.8239 3.32621 30.8211 3.30388 30.4987 2.56196C29.9184 1.22635 29.0112 0.502029 27.4775 0.149965C26.5953 -0.0525192 24.9816 -0.0494734 24.1994 0.15617Z" fill="white"/>
</svg>
