<svg width="37" height="29" viewBox="0 0 37 29" fill="none" xmlns="http://www.w3.org/2000/svg">
<path fill-rule="evenodd" clip-rule="evenodd" d="M13.4751 0.083893C9.46414 0.340315 5.36747 0.833533 4.35527 1.18185C2.59377 1.78815 1.13762 3.44049 0.741988 5.28203C0.263471 7.50931 -0.000467686 10.699 6.22123e-07 14.2464C0.00046893 17.1455 0.0777398 18.41 0.416608 21.0626C0.765216 23.792 1.12272 24.7095 2.28253 25.8517C3.26505 26.8194 4.26657 27.3054 5.68508 27.5032C7.90982 27.8133 10.0502 28.0406 12.7258 28.2509C14.7255 28.4081 22.1315 28.4075 24.2462 28.2501C28.0283 27.9683 31.6281 27.5227 32.5337 27.224C34.195 26.6759 35.5813 25.2617 36.0852 23.6009C36.4589 22.369 36.7935 19.6132 36.9512 16.4679C37.1563 12.3771 36.6913 6.5569 35.9957 4.51029C35.4086 2.78275 33.6477 1.30043 31.7696 0.952757C30.2787 0.6768 26.8521 0.313627 23.9184 0.120669C21.7571 -0.0213905 15.4692 -0.0435844 13.4751 0.083893ZM22.7008 2.64637C26.1699 2.83768 30.8729 3.34337 31.7129 3.61538C32.2776 3.79825 33.0412 4.46884 33.3381 5.04267C33.8586 6.04837 34.2232 9.21283 34.2882 13.2898C34.3379 16.4039 34.2647 18.0767 33.9818 20.2993C33.6686 22.7588 33.4789 23.3754 32.8297 24.0443C32.1463 24.7486 31.6382 24.8881 28.461 25.2443C24.5916 25.678 22.6258 25.7875 18.6265 25.7924C14.2386 25.7977 11.5826 25.636 7.34026 25.105C5.22997 24.8409 4.91705 24.7403 4.20457 24.0973C3.46417 23.429 3.23629 22.5821 2.82474 18.9695C2.62758 17.2384 2.6614 10.7559 2.87719 8.92725C3.12896 6.79379 3.35992 5.54855 3.59014 5.08275C3.84678 4.56367 4.42336 3.99616 4.94552 3.74864C5.68067 3.40014 11.0486 2.77752 14.6927 2.61803C16.3141 2.54705 21.2135 2.56438 22.7008 2.64637ZM13.1473 14.2006C13.1473 18.4111 13.1794 20.6203 13.2408 20.6203C13.3639 20.6203 26.3536 14.2608 26.3536 14.2006C26.3536 14.1403 13.3639 7.78087 13.2408 7.78087C13.1794 7.78087 13.1473 9.99008 13.1473 14.2006Z" fill="white"/>
</svg>
