<svg width="490" height="556" viewBox="0 0 490 556" fill="none" xmlns="http://www.w3.org/2000/svg">
<path fill-rule="evenodd" clip-rule="evenodd" d="M266.516 0.571054C263.487 2.37705 264.575 3.00805 271.153 3.25705C275.836 3.43405 277.867 3.09805 278.781 1.99705C279.85 0.708054 279.548 0.521054 276.646 0.677054C274.787 0.776054 272.141 0.558054 270.766 0.193054C269.391 -0.172946 267.478 -0.00294608 266.516 0.571054ZM145.766 7.87605C145.766 8.66005 146.441 9.56005 147.266 9.87705C148.447 10.3301 148.766 12.3821 148.766 19.5151C148.766 26.6481 148.447 28.7001 147.266 29.1531C146.441 29.4701 145.766 30.3701 145.766 31.1541C145.766 32.3221 147.882 32.5281 157.516 32.2971L169.266 32.0151L169.571 27.2651C169.932 21.6421 168.199 20.8881 165.563 25.5211C164.111 28.0721 163.261 28.5151 159.813 28.5151H155.766V24.5151C155.766 21.5221 156.167 20.5151 157.36 20.5151C158.236 20.5151 159.189 21.4151 159.476 22.5151C159.764 23.6151 160.622 24.5151 161.383 24.5151C162.393 24.5151 162.766 23.0311 162.766 19.0151C162.766 14.9991 162.393 13.5151 161.383 13.5151C160.622 13.5151 159.764 14.4151 159.476 15.5151C159.189 16.6151 158.236 17.5151 157.36 17.5151C156.205 17.5151 155.766 16.5511 155.766 14.0151C155.766 10.5231 155.776 10.5151 160.36 10.5151C164.112 10.5151 165.049 10.8811 165.476 12.5151C165.773 13.6501 166.84 14.5151 167.943 14.5151C169.578 14.5151 169.837 13.9191 169.576 10.7651L169.266 7.01505L157.516 6.73305C147.882 6.50205 145.766 6.70805 145.766 7.87605ZM176.766 7.90805C176.766 8.67405 177.441 9.56005 178.266 9.87705C179.447 10.3301 179.766 12.3821 179.766 19.5151C179.766 26.6481 179.447 28.7001 178.266 29.1531C177.441 29.4701 176.766 30.3561 176.766 31.1221C176.766 32.7361 186.311 32.9991 193.624 31.5861C200.028 30.3491 201.892 27.9741 202.422 20.3811C203.197 9.26705 199.928 6.67305 185.016 6.57105C178.604 6.52805 176.766 6.82505 176.766 7.90805ZM209.766 7.90805C209.766 8.67405 210.441 9.56005 211.266 9.87705C212.447 10.3301 212.766 12.3821 212.766 19.5151C212.766 26.6481 212.447 28.7001 211.266 29.1531C210.441 29.4701 209.766 30.3561 209.766 31.1221C209.766 32.1581 211.304 32.5151 215.766 32.5151C220.228 32.5151 221.766 32.1581 221.766 31.1221C221.766 30.3561 221.091 29.4701 220.266 29.1531C219.085 28.7001 218.766 26.6481 218.766 19.5151C218.766 12.3821 219.085 10.3301 220.266 9.87705C221.091 9.56005 221.766 8.67405 221.766 7.90805C221.766 6.87205 220.228 6.51505 215.766 6.51505C211.304 6.51505 209.766 6.87205 209.766 7.90805ZM234.529 8.08005C225.901 12.7621 227.144 28.5041 236.382 31.5531C238.456 32.2381 241.038 33.6221 242.119 34.6301C244.068 36.4451 244.064 36.4701 241.676 37.3881C239.616 38.1801 239.513 38.4151 240.968 39.0031C241.904 39.3821 243.142 39.4011 243.718 39.0451C245.096 38.1931 245.064 34.8171 243.671 33.9561C243.049 33.5721 244.245 32.5321 246.441 31.5491C249.608 30.1311 252.766 26.3461 252.766 23.9681C252.766 22.6781 250.216 23.8161 248.178 26.0151C245.898 28.4761 241.516 29.3191 239.166 27.7501C235.087 25.0261 234.526 15.6641 238.221 11.9701C241.499 8.69105 244.367 8.87605 247.837 12.5911C249.418 14.2831 251.173 15.3811 251.738 15.0321C253.393 14.0101 253.029 6.51505 251.325 6.51505C250.532 6.51505 249.605 6.96605 249.264 7.51805C248.85 8.18805 248.023 8.18805 246.771 7.51805C244.059 6.06605 237.702 6.35805 234.529 8.08005ZM264.067 8.47305C256.66 12.9891 257.549 28.5811 265.383 31.5601C269.47 33.1131 276.015 32.6601 279.413 30.5891C285.801 26.6931 286.626 14.4601 280.849 9.29705C278.281 7.00405 276.815 6.51605 272.5 6.51905C269.076 6.52105 266.16 7.19705 264.067 8.47305ZM290.766 7.87605C290.766 8.66005 291.441 9.56005 292.266 9.87705C293.447 10.3301 293.766 12.3821 293.766 19.5151C293.766 26.6481 293.447 28.7001 292.266 29.1531C291.441 29.4701 290.766 30.3701 290.766 31.1541C290.766 32.3221 292.882 32.5281 302.516 32.2971L314.266 32.0151L314.571 27.2651C314.932 21.6421 313.199 20.8881 310.563 25.5211C309.111 28.0721 308.261 28.5151 304.813 28.5151H300.766V24.5151C300.766 21.5221 301.167 20.5151 302.36 20.5151C303.236 20.5151 304.189 21.4151 304.476 22.5151C304.764 23.6151 305.622 24.5151 306.383 24.5151C307.393 24.5151 307.766 23.0311 307.766 19.0151C307.766 14.9991 307.393 13.5151 306.383 13.5151C305.622 13.5151 304.764 14.4151 304.476 15.5151C304.189 16.6151 303.236 17.5151 302.36 17.5151C301.205 17.5151 300.766 16.5511 300.766 14.0151C300.766 10.5231 300.776 10.5151 305.36 10.5151C309.148 10.5151 310.047 10.8741 310.489 12.5631C311.402 16.0561 314.266 14.4921 314.266 10.5011V7.01505L302.516 6.73305C292.882 6.50205 290.766 6.70805 290.766 7.87605ZM323.766 8.51505C322.544 9.73705 321.766 11.8481 321.766 13.9421C321.766 18.1961 325.037 21.0531 331.045 22.0481C338.793 23.3311 341.402 26.5621 336.266 28.5151C332.739 29.8561 328.031 28.6681 325.842 25.8841C323.007 22.2801 321.766 22.9611 321.766 28.1221C321.766 32.1291 321.994 32.6311 323.516 31.9771C324.478 31.5641 325.941 31.2971 326.766 31.3841C327.591 31.4711 330.607 31.8031 333.468 32.1221C338.117 32.6401 338.942 32.4301 341.218 30.1541C344.298 27.0741 344.67 21.6431 341.97 19.1991C340.982 18.3051 337.719 17.0371 334.72 16.3821C328.004 14.9141 325.874 13.2951 327.724 11.0651C329.878 8.47005 334.628 9.15605 337.766 12.5151C341.636 16.6581 342.766 16.3191 342.766 11.0151C342.766 7.76405 342.366 6.51505 341.325 6.51505C340.532 6.51505 339.617 6.94805 339.29 7.47705C338.909 8.09305 337.785 8.09305 336.165 7.47705C331.827 5.82705 325.963 6.31805 323.766 8.51505ZM275.766 11.5151C277.307 13.0561 277.766 14.8481 277.766 19.3241C277.766 27.1321 276.062 29.0931 269.677 28.6301C265.635 28.3371 264.159 15.1221 267.766 11.5151C268.866 10.4151 270.666 9.51505 271.766 9.51505C272.866 9.51505 274.666 10.4151 275.766 11.5151ZM194.731 12.4491C196.038 14.8921 196.072 22.5801 194.791 25.9501C193.998 28.0341 193.154 28.5151 190.291 28.5151H186.766V19.5151V10.5151H190.231C192.633 10.5151 194.013 11.1081 194.731 12.4491ZM236.942 61.5441C226.466 63.7061 213.738 71.7341 202.639 83.1801C198.994 86.9391 190.066 96.9901 182.798 105.515C155.752 137.242 128.054 165.425 92.1015 197.799C83.7615 205.31 74.5365 214.174 71.6015 217.497C53.6845 237.786 50.8035 256.435 62.4855 276.513C67.1115 284.463 83.2115 300.844 105.266 320.042C126.947 338.914 166.596 378.738 187.505 402.644C196.948 413.44 207.433 424.731 210.804 427.734C230.771 445.52 249.713 448.276 269.51 436.278C278.113 431.064 287.62 421.698 306.175 400.157C335.304 366.341 364.447 336.698 398.464 306.285C425.988 281.677 434.133 269.167 434.123 251.515C434.112 232.653 424.067 218.745 388.266 188.028C368.437 171.014 320.343 122.808 299.461 99.0151C281.733 78.8161 277.924 75.159 267.805 68.618C258.052 62.315 246.28 59.6171 236.942 61.5441ZM257.011 77.5311C268.761 81.9581 275.592 87.6741 294.636 109.015C324.025 141.95 355.683 173.298 388.266 201.727C394.866 207.486 402.082 214.182 404.3 216.606C417.677 231.224 422.929 246.522 419.357 260.467C417.62 267.246 414.186 274.254 410.249 279.054L407.82 282.015L408.392 277.515C409.754 266.806 403.551 250.615 393.45 238.515C390.466 234.94 384.253 228.698 379.645 224.644C359.341 206.782 330.464 178.798 313.131 160.188C286.751 131.863 277.171 122.507 270.266 118.325C249.83 105.947 230.027 108.228 209.948 125.271C207.024 127.754 197.631 137.712 189.074 147.4C180.518 157.088 155.445 183.015 133.356 205.015C97.4555 240.771 92.8015 245.771 89.4915 252.139C84.3535 262.027 82.3815 270.312 83.0935 279.015L83.6665 286.015L80.7525 282.515C79.1505 280.59 76.1605 275.731 74.1085 271.717C70.8195 265.282 70.3275 263.369 69.9535 255.547C69.4225 244.436 71.3275 237.83 77.8865 228.037C82.8125 220.683 87.7075 215.754 114.797 190.87C140.344 167.403 167.845 138.747 192.919 109.466C207.633 92.282 215.864 84.7551 225.017 80.1091C236.444 74.3081 246.339 73.5111 257.011 77.5311ZM256.911 124.492C267.843 127.892 274.251 133.064 295.128 155.337C317.564 179.273 345.832 207.192 367.262 226.58C389.581 246.773 396.348 257.997 396.158 274.515C396.059 283.186 394.139 289.411 388.912 298.015L385.266 304.015L384.607 295.515C383.144 276.632 378.777 270.29 345.392 238.563C331.023 224.907 312.123 206.147 303.392 196.874C277.354 169.22 271.826 164.715 258.803 160.527C252.864 158.617 250.279 158.326 243.192 158.768C235.922 159.222 233.516 159.875 226.482 163.304C215.852 168.488 210.325 173.363 191.666 194.015C183.219 203.365 163.867 223.39 148.663 238.515C130.712 256.373 119.56 268.279 116.858 272.473C110.968 281.616 108.463 290.505 108.923 300.635L109.29 308.707L106.471 305.361C104.921 303.521 101.765 298.224 99.4595 293.59C95.3905 285.415 95.2685 284.882 95.3265 275.59C95.4245 259.79 100.12 251.174 118.049 233.902C141.119 211.678 175.681 176.537 187.766 163.019C214.032 133.637 219.325 129.022 231.538 124.86C239.949 121.993 248.48 121.869 256.911 124.492ZM263.651 173.062C270.73 176.518 273.127 178.677 297.703 203.718C312.243 218.534 332.814 238.756 343.417 248.656C369.832 273.32 374.338 280.476 374.183 297.515C374.089 307.787 371.287 315.964 365.872 321.764L362.266 325.627L362.156 316.821C361.937 299.376 357.112 291.824 329.691 266.015C318.588 255.565 302.062 239.239 292.965 229.734C283.868 220.229 273.757 210.671 270.496 208.493C254.89 198.072 236.625 198.084 220.99 208.525C217.702 210.72 209.236 218.703 202.176 226.265C195.116 233.828 178.027 251.49 164.2 265.515C141.117 288.929 138.742 291.665 135.163 298.959C131.359 306.714 131.266 307.164 131.266 317.783V328.663L128.476 325.339C116.652 311.25 115.911 289.793 126.705 274.103C128.289 271.802 141.926 257.565 157.011 242.467C172.095 227.368 191.492 207.303 200.115 197.877C208.738 188.452 218.272 179.033 221.301 176.946C235.03 167.491 249.519 166.162 263.651 173.062ZM262.266 213.019C267.197 215.385 272.095 219.746 289.766 237.507C301.591 249.392 319.175 266.743 328.842 276.066C344.132 290.81 346.864 293.923 349.842 299.994C353.049 306.53 353.266 307.609 353.266 316.994C353.266 325.926 352.953 327.693 350.386 333.25C346.044 342.651 344.891 343.03 344.891 335.056C344.891 326.416 342.647 318.989 338.018 312.307C335.955 309.328 319.866 292.707 302.266 275.372C273.841 247.375 269.486 243.471 263.282 240.434C256.674 237.199 255.73 237.015 245.782 237.021C228.83 237.032 229.224 236.756 191.766 274.788C174.441 292.378 158.609 308.967 156.584 311.652C151.106 318.917 148.564 326.516 148.473 335.903L148.397 343.79L146.074 340.903C142.786 336.815 139.754 328.191 139.084 321.023C138.426 313.966 140.418 305.659 144.484 298.515C145.893 296.04 157.465 283.44 170.201 270.515C182.937 257.59 199.34 240.623 206.652 232.811C225.641 212.523 231.334 209.303 247.266 209.838C254.738 210.089 257.284 210.629 262.266 213.019ZM260.266 246.585C264.005 248.364 273.53 257.039 298.041 280.989C336.91 318.971 337.275 319.477 337.253 335.5C337.24 345.441 336.15 348.855 330.385 357.015L328.266 360.015L327.663 351.515C326.656 337.308 326.159 336.616 294.888 305.762C262.632 273.937 260.073 272.147 246.863 272.147C240.335 272.147 238.161 272.616 232.708 275.201C229.165 276.881 224.627 279.777 222.624 281.636C216.049 287.737 174.23 331.941 171.951 335.199C168.369 340.32 166.666 346.495 166.66 354.387L166.655 361.759L164.193 359.446C162.839 358.174 160.501 354.632 158.998 351.574C156.575 346.643 156.266 344.886 156.267 336.015C156.268 321.656 157.483 319.693 181.655 294.998C192.441 283.979 205.991 269.889 211.766 263.687C227.264 247.043 234.146 243.254 247.766 243.869C253.054 244.107 256.741 244.908 260.266 246.585ZM258.513 280.521C264.589 283.209 315.46 332.61 318.575 338.848C323.297 348.302 323.17 359.603 318.246 368.095C314.209 375.059 313.289 375.14 313.097 368.549C312.781 357.712 310.857 354.987 286.452 330.817C261.111 305.72 258.669 304.056 247.266 304.121C234.826 304.191 233.309 305.286 204.816 334.755C185.213 355.031 182.556 359.233 182.453 370.117C182.395 376.331 182.346 376.445 180.476 374.753C177.135 371.729 173.79 365.012 172.707 359.151C171.541 352.847 173.195 343.906 176.478 338.759C179.351 334.255 225.718 286.244 230.095 283.241C238.714 277.328 249.056 276.338 258.513 280.521ZM257.833 311.05C263.13 313.789 302.316 352.272 305.195 357.562C310.203 366.764 309.422 377.147 303.158 384.644L299.766 388.704V384.976C299.766 376.159 298.295 373.942 280.324 355.678C260.018 335.039 257.066 333.015 247.266 333.015C241.586 333.015 239.474 333.486 236.067 335.515C231.046 338.505 200.684 369.839 198.253 374.54C197.315 376.355 196.301 380.554 196 383.871L195.453 389.903L192.576 386.459C189.599 382.897 186.766 375.121 186.766 370.515C186.766 369.065 187.467 365.516 188.325 362.63C189.725 357.913 192.024 355.151 211.011 335.378C235.66 309.706 237.799 308.212 248.854 308.932C251.927 309.132 255.968 310.085 257.833 311.05ZM255.523 338.058C260.513 340.143 291.393 370.717 293.86 376.015C296.091 380.808 296.305 388.367 294.335 392.797C293.548 394.567 287.81 401.228 281.585 407.6C272.447 416.953 268.921 419.844 263.287 422.6C256.915 425.718 255.525 426.015 247.287 426.015C240.086 426.015 237.298 425.568 233.471 423.801C227.565 421.075 204.365 399.555 201.67 394.305C199.277 389.643 199.188 381.554 201.474 376.666C203.605 372.111 235.186 339.737 239.266 337.925C243.334 336.119 251.032 336.182 255.523 338.058ZM334.766 459.515C334.766 463.229 334.966 463.515 337.566 463.515C342.026 463.515 342.766 465.093 342.766 474.607V483.299L339.055 481.407C334.864 479.271 325.604 478.877 319.489 480.575C314.711 481.902 309.279 486.637 306.474 491.92C304.64 495.375 304.301 497.655 304.303 506.515C304.304 515.983 304.57 517.522 307.008 522.177C309.872 527.647 313.113 530.479 318.665 532.362C326.268 534.941 337.07 532.98 342.267 528.079L345.619 524.918L346.238 528.216L346.857 531.515H358.311H369.766V527.515C369.766 523.786 369.574 523.515 366.921 523.515C360.832 523.515 360.766 523.128 360.766 487.686V455.515H347.766H334.766V459.515ZM16.5925 480.439C10.9615 482.255 5.80047 485.924 4.23347 489.226C2.46447 492.955 2.96447 497.604 5.34747 499.582C7.59247 501.445 14.4995 501.067 16.8355 498.952C19.6495 496.406 19.0935 491.471 15.8085 489.842L13.3515 488.623L16.1235 487.569C17.6485 486.989 21.3175 486.515 24.2755 486.515C31.4825 486.515 34.7515 489.2 35.4865 495.727L36.0105 500.372L32.1385 501.359C30.0085 501.902 23.8965 503.317 18.5555 504.504C3.74347 507.795 -0.677534 511.698 0.0814659 520.812C0.780466 529.184 6.97847 533.509 18.2665 533.5C24.4365 533.494 32.5895 529.899 35.5155 525.893L37.6175 523.015L38.5775 525.515C40.1355 529.573 43.3775 531.771 48.5345 532.267C54.2165 532.813 59.9285 530.743 62.1105 527.349C62.9355 526.065 63.9215 522.877 64.3025 520.265L64.9935 515.515H61.9375C59.0575 515.515 58.8635 515.759 58.5735 519.765C58.3005 523.55 57.9925 524.015 55.7665 524.015H53.2665L52.7665 507.334C52.1905 488.105 51.6775 486.774 43.2185 482.54C39.1635 480.51 36.5675 480.022 28.7705 479.822C23.5435 479.687 18.0635 479.965 16.5925 480.439ZM110.796 481.098C103.729 484.164 100.133 489.876 98.6355 500.414C96.6195 514.597 100.958 527.493 109.068 531.419C116.591 535.061 129.26 533.957 134.516 529.202L136.766 527.166V535.718C136.766 545.433 136.189 546.38 129.753 547.244C125.749 547.781 125.668 547.869 125.964 551.404L126.266 555.015L145.016 555.287L163.766 555.559V551.537C163.766 548.018 163.481 547.515 161.489 547.515C160.236 547.515 158.211 546.814 156.989 545.958C154.772 544.406 154.766 544.317 154.766 512.958V481.515H148.424H142.083L140.878 485.536L139.673 489.558L137.011 486.394C135.547 484.654 132.53 482.404 130.307 481.395C125.347 479.141 115.647 478.994 110.796 481.098ZM250.775 481.412C243.726 483.927 239.761 488.208 239.781 493.281C239.801 497.992 240.671 499.346 244.336 500.369C248.684 501.583 253.617 499.955 254.342 497.069C255.264 493.394 254.487 491.184 251.799 489.844L249.351 488.623L252.123 487.569C253.648 486.989 257.377 486.515 260.408 486.515C265.167 486.515 266.319 486.914 268.843 489.438C271.109 491.704 271.766 493.269 271.766 496.4C271.766 500.994 272.503 500.64 255.078 504.411C240.125 507.647 236.381 510.671 236.381 519.515C236.381 528.093 241.054 532.447 251.129 533.256C259.464 533.925 266.58 531.63 270.692 526.947L273.711 523.508L275.255 526.495C276.105 528.137 278.216 530.213 279.946 531.108C284.094 533.253 292.891 532.605 295.889 529.934C298.61 527.509 300.766 522.475 300.766 518.547C300.766 515.858 300.433 515.515 297.823 515.515C295.077 515.515 294.861 515.798 294.573 519.765C294.324 523.214 293.866 524.072 292.146 524.317C289.198 524.738 288.796 522.541 288.78 505.913C288.767 492.887 288.591 491.552 286.477 488.413C282.564 482.604 276.921 480.253 265.863 479.824C258.185 479.527 255.168 479.844 250.775 481.412ZM410.906 480.235C409.607 480.481 406.57 482.658 404.156 485.073L399.766 489.462V485.489V481.515H386.766H373.766V485.515C373.766 489.229 373.966 489.515 376.566 489.515C381.401 489.515 381.766 490.721 381.766 506.68C381.766 520.254 381.61 521.528 379.832 522.48C378.768 523.049 376.968 523.515 375.832 523.515C374.088 523.515 373.766 524.139 373.766 527.515V531.515H391.766H409.766V527.515C409.766 523.737 409.599 523.515 406.766 523.515C401.305 523.515 399.765 520.706 399.776 510.765C399.784 503.696 400.236 501.047 402.133 496.974C406.125 488.402 414.231 483.756 417.766 488.015C418.782 489.239 418.725 489.515 417.46 489.515C413.078 489.515 411.028 497.632 414.595 500.86C415.67 501.833 418.112 502.515 420.522 502.515C426.015 502.515 428.766 499.178 428.766 492.515C428.766 483.339 421.365 478.251 410.906 480.235ZM449.473 481.072C439.358 484.298 433.766 493.713 433.766 507.518C433.766 524.496 443.306 533.515 461.266 533.515C470.97 533.515 477.497 531.113 482.882 525.559C488.461 519.806 490.245 513.815 489.549 503.161C488.852 492.498 485.084 486.242 476.766 481.938C471.97 479.456 456.118 478.954 449.473 481.072ZM161.766 485.515C161.766 489.271 161.945 489.515 164.695 489.515C170.238 489.515 170.766 491.09 170.766 507.619C170.766 529.141 172.796 532.515 185.748 532.515C193.145 532.515 198.059 530.594 203.016 525.763L206.766 522.109V526.812V531.515H219.266H231.766V527.515C231.766 523.946 231.504 523.515 229.337 523.515C224.134 523.515 223.766 522.022 223.766 500.944V481.515H211.266H198.766V485.515C198.766 489.084 199.028 489.515 201.195 489.515C205.614 489.515 206.768 491.87 206.744 500.836C206.72 509.745 204.839 515.506 200.691 519.37C197.691 522.165 192.683 522.185 190.171 519.411C188.478 517.542 188.227 515.315 187.919 499.411L187.572 481.515H174.669H161.766V485.515ZM340.539 490.906C343.876 494.136 345.453 503.718 343.965 511.72C342.485 519.68 339.777 522.613 333.831 522.695C325.378 522.811 321.355 516.468 321.987 504.015C322.422 495.428 324.203 491.552 328.767 489.253C332.961 487.141 337.274 487.747 340.539 490.906ZM469.12 491.777C470.751 493.97 471.258 496.442 471.577 503.777C472.267 519.595 469.422 524.969 460.698 524.326C454.294 523.855 452.492 520.813 451.954 509.566C451.42 498.401 452.223 493.968 455.341 490.849C457.355 488.835 458.599 488.46 462.424 488.711C466.135 488.954 467.477 489.569 469.12 491.777ZM133.798 492.265C136.277 494.491 137.019 496.157 137.691 501.015C138.148 504.315 138.151 509.715 137.699 513.015C136.687 520.4 132.925 524.515 127.184 524.515C119.133 524.515 116.324 519.99 116.324 507.015C116.324 494.047 119.036 489.61 127 489.545C129.693 489.523 131.589 490.282 133.798 492.265ZM35.7665 510.841C35.7665 516.127 35.3965 517.503 33.5165 519.216C28.6655 523.634 22.0575 524.91 18.2905 522.157C15.8275 520.355 15.8605 514.974 18.3495 512.495C19.9755 510.876 32.7155 504.836 35.0165 504.594C35.4295 504.551 35.7665 507.362 35.7665 510.841ZM268.337 520.265C262.131 525.96 252.766 524.167 252.766 517.284C252.766 513.421 255.753 510.89 264.333 507.484L271.266 504.732L271.572 510.874C271.867 516.789 271.749 517.134 268.337 520.265Z" fill="#CF0018"/>
</svg>
