<svg width="37" height="37" viewBox="0 0 37 37" fill="none" xmlns="http://www.w3.org/2000/svg">
<path fill-rule="evenodd" clip-rule="evenodd" d="M8.23288 0.313754C4.48526 1.22148 1.21039 4.53115 0.319922 8.31037C-0.106641 10.121 -0.106641 26.8758 0.319922 28.6865C1.2564 32.6612 4.81346 36.0693 8.76974 36.7823C10.6063 37.1133 26.9379 37.0502 28.5624 36.7056C32.4557 35.8801 35.8751 32.4587 36.7001 28.5632C37.1 26.6759 37.1 10.3209 36.7001 8.43364C35.8863 4.59066 32.562 1.21917 28.6855 0.304702C26.9406 -0.106695 9.93817 -0.099376 8.23288 0.313754ZM29.5067 3.90596C31.2582 4.77229 32.3496 5.88783 33.1972 7.67806L33.8064 8.96464V18.4984V28.0322L33.1972 29.3188C32.3494 31.1094 31.2582 32.2245 29.5061 33.0909L28.0517 33.8102H18.5033H8.95492L7.50045 33.0909C5.74839 32.2245 4.65715 31.1094 3.80942 29.3188L3.20018 28.0322V18.4984V8.96464L3.80942 7.67806C4.14435 6.97064 4.77226 6.00763 5.20441 5.53845C6.05234 4.6182 7.79535 3.58952 8.99765 3.30023C9.41729 3.19912 13.758 3.13479 18.8987 3.15347L28.0524 3.1866L29.5067 3.90596ZM27.6467 6.34584C26.7899 6.72237 26.2992 7.50491 26.2992 8.49489C26.2992 9.304 26.3889 9.52858 26.9285 10.0684C27.4702 10.6104 27.6909 10.6981 28.5129 10.6981C29.3348 10.6981 29.5556 10.6104 30.0973 10.0684C30.639 9.52646 30.7265 9.30555 30.7265 8.48314C30.7265 7.67171 30.6366 7.4377 30.1312 6.93173C29.4956 6.29576 28.3664 6.02959 27.6467 6.34584ZM16.3859 10.2999C12.6718 11.3358 10.0383 14.7369 10.0383 18.4984C10.0383 23.0769 13.9274 26.9683 18.5033 26.9683C23.0885 26.9683 26.9683 23.0862 26.9683 18.4984C26.9683 13.0603 21.5474 8.86064 16.3859 10.2999ZM20.8188 13.6789C21.9834 14.2635 22.6767 14.9428 23.2806 16.0909C23.6971 16.8827 23.7872 17.3106 23.7872 18.4984C23.7872 19.6862 23.6971 20.1141 23.2806 20.9059C22.2573 22.8512 20.7068 23.7861 18.5033 23.7861C16.2998 23.7861 14.7493 22.8512 13.726 20.9059C13.0296 19.582 13.0038 17.4678 13.6685 16.1872C14.4327 14.7148 15.507 13.8174 17.1559 13.2741C17.9791 13.0029 19.8937 13.2146 20.8188 13.6789Z" fill="white"/>
</svg>
