<svg width="39" height="21" viewBox="0 0 39 21" fill="none" xmlns="http://www.w3.org/2000/svg">
<path d="M0.5 0.5L2.5 2.5L4.5 4.5L6.5 6.5L8.5 8.5L10.5 10.5L12.5 12.5L14.5 14.5L16.5 16.5L18.5 18.5L19.5 19.5L20.5 18.5L22.5 16.5L24.5 14.5L26.5 12.5L28.5 10.5L30.5 8.5L32.5 6.5L34.5 4.5L36.5 2.5L38.5 0.5" stroke="black" stroke-linecap="round"/>
<path d="M0.5 0.5L2.5 2.5L4.5 4.5L6.5 6.5L8.5 8.5L10.5 10.5L12.5 12.5L14.5 14.5L16.5 16.5L18.5 18.5L19.5 19.5L20.5 18.5L22.5 16.5L24.5 14.5L26.5 12.5L28.5 10.5L30.5 8.5L32.5 6.5L34.5 4.5L36.5 2.5L38.5 0.5" stroke="black" stroke-opacity="0.2" stroke-linecap="round"/>
</svg>
